<svg width="400" height="400" viewBox="0 0 400 400" fill="none" xmlns="http://www.w3.org/2000/svg" class="max-w-full h-auto"><defs><linearGradient id="cyanGradient" x1="0%" y1="0%" x2="100%" y2="100%"><stop offset="0%" stop-color="#06b6d4"/><stop offset="100%" stop-color="#0891b2"/></linearGradient></defs><rect x="100" y="60" width="200" height="280" rx="12" fill="url(#cyanGradient)" opacity="0.1"/><rect x="100" y="60" width="200" height="280" rx="12" fill="none" stroke="#06b6d4" stroke-width="3"/><line x1="130" y1="100" x2="270" y2="100" stroke="#06b6d4" stroke-width="3" stroke-linecap="round"/><line x1="130" y1="130" x2="250" y2="130" stroke="#06b6d4" stroke-width="3" stroke-linecap="round"/><line x1="130" y1="160" x2="270" y2="160" stroke="#06b6d4" stroke-width="3" stroke-linecap="round"/><line x1="130" y1="190" x2="240" y2="190" stroke="#06b6d4" stroke-width="3" stroke-linecap="round"/><circle cx="200" cy="250" r="50" fill="url(#cyanGradient)" opacity="0.2"/><circle cx="200" cy="250" r="50" fill="none" stroke="#06b6d4" stroke-width="3"/><circle cx="200" cy="250" r="6" fill="#06b6d4"/><circle cx="175" cy="235" r="5" fill="#06b6d4"/><circle cx="225" cy="235" r="5" fill="#06b6d4"/><circle cx="185" cy="270" r="5" fill="#06b6d4"/><circle cx="215" cy="270" r="5" fill="#06b6d4"/><line x1="200" y1="250" x2="175" y2="235" stroke="#06b6d4" stroke-width="2"/><line x1="200" y1="250" x2="225" y2="235" stroke="#06b6d4" stroke-width="2"/><line x1="200" y1="250" x2="185" y2="270" stroke="#06b6d4" stroke-width="2"/><line x1="200" y1="250" x2="215" y2="270" stroke="#06b6d4" stroke-width="2"/><path d="M 290 100 L 295 115 L 310 120 L 295 125 L 290 140 L 285 125 L 270 120 L 285 115 Z" fill="#06b6d4" opacity="0.8"/><path d="M 320 150 L 323 160 L 333 163 L 323 166 L 320 176 L 317 166 L 307 163 L 317 160 Z" fill="#0891b2" opacity="0.6"/></svg>